<svg id="Layer_2" data-name="Layer 2" xmlns="http://www.w3.org/2000/svg" viewBox="0 0 44.36 48.22"><defs><style>.cls-1{fill:none;stroke:#ece1d3;stroke-miterlimit:10;stroke-width:3px;}</style></defs><path class="cls-1" d="M43.12,35.38h-1.5V17.32A14.79,14.79,0,0,0,26.83,2.54H23.55A14.78,14.78,0,0,0,8.77,17.32V35.38H7.26a2.71,2.71,0,0,0-2.7,2.14,2.63,2.63,0,0,0,2.58,3.11H43.25a2.63,2.63,0,0,0,2.58-3.11A2.71,2.71,0,0,0,43.12,35.38Z" transform="translate(-3.01 -1.04)"/><path class="cls-1" d="M16.54,40.87H27.82a0,0,0,0,1,0,0v.21a5.64,5.64,0,0,1-5.64,5.64h0a5.64,5.64,0,0,1-5.64-5.64v-.21A0,0,0,0,1,16.54,40.87Z"/></svg>