<svg id="Layer_1" data-name="Layer 1" xmlns="http://www.w3.org/2000/svg" viewBox="0 0 18.7 18.7"><defs><style>.cls-1{fill:none;stroke:#ece1d3;stroke-miterlimit:10;stroke-width:2px;}</style></defs><path class="cls-1" d="M10.7,3.92l.78,1a1.51,1.51,0,0,0,1.4.58l1.25-.15a1.53,1.53,0,0,1,1.71,1.71L15.68,8.3a1.52,1.52,0,0,0,.58,1.4l1,.77a1.53,1.53,0,0,1,0,2.42l-1,.77a1.52,1.52,0,0,0-.58,1.4l.16,1.25A1.53,1.53,0,0,1,14.13,18l-1.25-.15a1.51,1.51,0,0,0-1.4.58l-.78,1a1.52,1.52,0,0,1-2.41,0l-.78-1a1.51,1.51,0,0,0-1.4-.58L4.86,18a1.53,1.53,0,0,1-1.71-1.71l.16-1.25a1.52,1.52,0,0,0-.58-1.4l-1-.77a1.53,1.53,0,0,1,0-2.42l1-.77a1.52,1.52,0,0,0,.58-1.4L3.15,7.05A1.53,1.53,0,0,1,4.86,5.34l1.25.15a1.51,1.51,0,0,0,1.4-.58l.78-1A1.52,1.52,0,0,1,10.7,3.92Z" transform="translate(-0.14 -2.33)"/><circle class="cls-1" cx="9.35" cy="9.35" r="2.23"/></svg>