<?xml version="1.0" encoding="utf-8"?>
<!-- Generator: Adobe Illustrator 25.3.1, SVG Export Plug-In . SVG Version: 6.00 Build 0)  -->
<svg version="1.1" id="Layer_2_1_" xmlns="http://www.w3.org/2000/svg" xmlns:xlink="http://www.w3.org/1999/xlink" x="0px" y="0px"
	 viewBox="0 0 44.4 48.2" style="enable-background:new 0 0 44.4 48.2;" xml:space="preserve">
<style type="text/css">
	.st0{fill:none;stroke:#1E1E1E;stroke-width:3;stroke-miterlimit:10;}
</style>
<path class="st0" d="M40.1,34.3h-1.5V16.3c0-8.2-6.6-14.8-14.8-14.8h-3.3c-8.2,0-14.8,6.6-14.8,14.8v18.1H4.2
	c-1.3,0-2.4,0.9-2.7,2.1c-0.3,1.4,0.7,2.8,2.1,3.1c0.2,0,0.3,0,0.5,0h36.1c1.5,0,2.6-1.2,2.6-2.6c0-0.2,0-0.3,0-0.5
	C42.5,35.2,41.4,34.3,40.1,34.3z"/>
<path class="st0" d="M16.5,40.9h11.3l0,0v0.2c0,3.1-2.5,5.6-5.6,5.6l0,0c-3.1,0-5.6-2.5-5.6-5.6V40.9L16.5,40.9z"/>
</svg>
