<?xml version="1.0" encoding="utf-8"?>
<!-- Generator: Adobe Illustrator 25.3.1, SVG Export Plug-In . SVG Version: 6.00 Build 0)  -->
<svg version="1.1" id="Layer_2_1_" xmlns="http://www.w3.org/2000/svg" xmlns:xlink="http://www.w3.org/1999/xlink" x="0px" y="0px"
	 viewBox="0 0 51.8 53" style="enable-background:new 0 0 51.8 53;" xml:space="preserve">
<style type="text/css">
	.st0{fill:none;stroke:#1E1E1E;stroke-width:4;stroke-miterlimit:10;}
</style>
<path class="st0" d="M3.4,1.5h17.9c1,0,1.9,1.9,1.9,4.3v41.3c0,2.4-0.8,4.3-1.9,4.3H3.4c-1,0-1.9-1.9-1.9-4.3V5.8
	C1.5,3.4,2.3,1.5,3.4,1.5z"/>
<path class="st0" d="M33.2,1.5h15.5c0.9,0,1.6,0.7,1.6,1.6l0,0v15.2c0,0.9-0.7,1.6-1.6,1.6l0,0H33.2c-0.9,0-1.6-0.7-1.6-1.6V3.1
	C31.6,2.2,32.3,1.5,33.2,1.5z"/>
<path class="st0" d="M33.2,33h15.5c0.9,0,1.6,0.7,1.6,1.6l0,0v15.3c0,0.9-0.7,1.6-1.6,1.6l0,0H33.2c-0.9,0-1.6-0.7-1.6-1.6V34.7
	C31.6,33.8,32.3,33,33.2,33z"/>
<image style="overflow:visible;" width="1913" height="30" xlink:href="E631E964.png"  transform="matrix(0.75 0 0 0.75 16.1082 -44.5605)">
</image>
</svg>
