<?xml version="1.0" encoding="utf-8"?>
<!-- Generator: Adobe Illustrator 25.3.1, SVG Export Plug-In . SVG Version: 6.00 Build 0)  -->
<svg version="1.1" id="Layer_1" xmlns="http://www.w3.org/2000/svg" xmlns:xlink="http://www.w3.org/1999/xlink" x="0px" y="0px"
	 viewBox="0 0 20.7 20.1" style="enable-background:new 0 0 20.7 20.1;" xml:space="preserve">
<style type="text/css">
	.st0{fill:none;stroke:#1E1E1E;stroke-width:1.5;stroke-miterlimit:10;}
</style>
<path class="st0" d="M1.2,4.7h6.9c0.1,0,0.2,0.1,0.2,0.2v6.9c0,0.1-0.1,0.2-0.2,0.2H1.2C1.1,12,1,11.9,1,11.8V4.9
	C1,4.8,1.1,4.7,1.2,4.7z"/>
<path class="st0" d="M12.6,1h6.9c0.1,0,0.2,0.1,0.2,0.2v6.9c0,0.1-0.1,0.2-0.2,0.2h-6.9c-0.1,0-0.2-0.1-0.2-0.2V1.2
	C12.4,1.1,12.5,1,12.6,1z"/>
<path class="st0" d="M1.2,11.7h6.9c0.1,0,0.2,0.1,0.2,0.2v6.9c0,0.1-0.1,0.2-0.2,0.2H1.2C1.1,19.1,1,19,1,18.9V12
	C1,11.8,1.1,11.7,1.2,11.7z"/>
<path class="st0" d="M8.5,11.7h6.9c0.1,0,0.2,0.1,0.2,0.2v6.9c0,0.1-0.1,0.2-0.2,0.2H8.5c-0.1,0-0.2-0.1-0.2-0.2v-6.9
	C8.3,11.8,8.4,11.7,8.5,11.7z"/>
</svg>
