<?xml version="1.0" encoding="utf-8"?>
<!-- Generator: Adobe Illustrator 25.3.1, SVG Export Plug-In . SVG Version: 6.00 Build 0)  -->
<svg version="1.1" id="Layer_1" xmlns="http://www.w3.org/2000/svg" xmlns:xlink="http://www.w3.org/1999/xlink" x="0px" y="0px"
	 viewBox="0 0 18.7 18.7" style="enable-background:new 0 0 18.7 18.7;" xml:space="preserve">
<style type="text/css">
	.st0{fill:none;stroke:#1E1E1E;stroke-width:2;stroke-miterlimit:10;}
</style>
<path class="st0" d="M10.6,1.6l0.8,1c0.3,0.4,0.9,0.7,1.4,0.6L14,3c0.8-0.1,1.6,0.5,1.7,1.3c0,0.1,0,0.3,0,0.4L15.5,6
	c-0.1,0.5,0.2,1.1,0.6,1.4l1,0.8c0.7,0.5,0.8,1.5,0.3,2.1c-0.1,0.1-0.2,0.2-0.3,0.3l-1,0.8c-0.4,0.3-0.6,0.9-0.6,1.4l0.2,1.2
	c0.1,0.8-0.5,1.6-1.3,1.7c-0.1,0-0.2,0-0.4,0l-1.2-0.1c-0.5-0.1-1.1,0.1-1.4,0.6l-0.8,1c-0.5,0.7-1.5,0.8-2.1,0.3
	c-0.1-0.1-0.2-0.2-0.3-0.3l-0.8-1C7,15.7,6.5,15.4,6,15.5l-1.3,0.1c-0.8,0.1-1.6-0.5-1.7-1.3c0-0.1,0-0.3,0-0.4l0.2-1.2
	c0.1-0.5-0.2-1.1-0.6-1.4l-1-0.8C0.9,10,0.8,9.1,1.3,8.4c0.1-0.1,0.2-0.2,0.3-0.3l1-0.8C3,7,3.2,6.5,3.2,5.9L3,4.7
	C2.9,3.9,3.5,3.1,4.3,3c0.1,0,0.3,0,0.4,0L6,3.2C6.5,3.2,7,3,7.4,2.6l0.8-1c0.5-0.7,1.5-0.8,2.1-0.3C10.4,1.4,10.5,1.5,10.6,1.6z"/>
<circle class="st0" cx="9.4" cy="9.3" r="2.2"/>
</svg>
